<?xml version="1.0" standalone="no"?>
<!DOCTYPE svg PUBLIC "-//W3C//DTD SVG 20010904//EN"
 "http://www.w3.org/TR/2001/REC-SVG-20010904/DTD/svg10.dtd">
<svg version="1.0" xmlns="http://www.w3.org/2000/svg"
 width="300.000000pt" height="75.000000pt" viewBox="0 0 300.000000 75.000000"
 preserveAspectRatio="xMidYMid meet">
<metadata>
Created by potrace 1.10, written by Peter Selinger 2001-2011
</metadata>
<g transform="translate(0.000000,75.000000) scale(0.100000,-0.100000)"
fill="#000000" stroke="none">
<path d="M0 375 l0 -375 1500 0 1500 0 0 375 0 375 -1500 0 -1500 0 0 -375z
m2700 185 l0 -110 110 0 110 0 0 -75 0 -75 -110 0 -110 0 0 -110 0 -110 -75 0
-75 0 0 110 0 110 -110 0 -110 0 0 75 0 75 110 0 110 0 0 110 0 110 75 0 75 0
0 -110z"/>
</g>
</svg>
